<svg width="1980" height="1100" viewBox="0 0 1980 1100" xmlns="http://www.w3.org/2000/svg" font-family="ui-sans-serif, system-ui, 'Malgun Gothic', sans-serif">
  <rect width="1980" height="1100" fill="#ffffff"/>
  <defs>
    <marker id="ca" viewBox="0 0 10 10" refX="8.5" refY="5" markerWidth="7" markerHeight="7" orient="auto-start-reverse">
      <path d="M2 1L8 5L2 9" fill="none" stroke="#111827" stroke-width="1.6" stroke-linecap="round" stroke-linejoin="round"/>
    </marker>
  </defs>
  <text x="990" y="46" text-anchor="middle" font-size="27" font-weight="700" fill="#111827">AI 챗봇 플로우</text>
  <text x="990" y="76" text-anchor="middle" font-size="14" fill="#6b7280">SSE 스트리밍 · 키워드 분류 · RAG/날씨/일반 질문 응답</text>

  <g stroke="#111827" stroke-width="1.5" fill="none">
    <path d="M180 138 H230" marker-end="url(#ca)"/>
    <path d="M450 138 H500" marker-end="url(#ca)"/>
    <path d="M660 172 V212" marker-end="url(#ca)"/>
    <path d="M660 368 V390 H480 V410" marker-end="url(#ca)"/>
    <path d="M510 290 H200 V410" marker-end="url(#ca)"/>
    <path d="M810 290 H920 V360" marker-end="url(#ca)"/>
    <path d="M480 490 V530" marker-end="url(#ca)"/>
    <path d="M480 620 V660" marker-end="url(#ca)"/>
    <path d="M290 585 H330" marker-end="url(#ca)"/>
    <path d="M920 460 V490" marker-end="url(#ca)"/>
    <path d="M810 410 H700 V745 H770" marker-end="url(#ca)"/>
    <path d="M920 580 V700" marker-end="url(#ca)"/>
    <path d="M480 740 V915 H550" marker-end="url(#ca)"/>
    <path d="M920 790 V915 H830" marker-end="url(#ca)"/>
    <path d="M830 915 H900" marker-end="url(#ca)"/>
    <path d="M1160 915 H1190" marker-end="url(#ca)"/>
    <path d="M1450 915 H1480" marker-end="url(#ca)"/>
    <path d="M1740 915 H1770" marker-end="url(#ca)"/>
  </g>

  <g stroke="#6b7280" stroke-width="1.4" fill="none" stroke-dasharray="6 5">
    <path d="M200 500 V1050 H1320 V955" marker-end="url(#ca)"/>
  </g>

  <text x="303" y="282" font-size="12" fill="#374151">모호한 공지</text>
  <text x="486" y="382" font-size="12" fill="#374151">공지 · 강의</text>
  <text x="828" y="282" font-size="12" fill="#374151">날씨 · 일반 질문</text>
  <text x="932" y="402" font-size="12" fill="#374151">예(날씨)</text>
  <text x="716" y="402" font-size="12" fill="#374151">아니오</text>
  <text x="210" y="1043" font-size="11" fill="#6b7280">고정 응답 (Groq 미호출)</text>

  <!-- terminals -->
  <g text-anchor="middle" dominant-baseline="central">
    <rect x="40" y="110" width="140" height="56" rx="28" fill="#fff" stroke="#111827" stroke-width="1.5"/>
    <text x="110" y="138" font-size="16" font-weight="700" fill="#111827">시작</text>
    <rect x="1770" y="887" width="160" height="56" rx="28" fill="#fff" stroke="#111827" stroke-width="1.5"/>
    <text x="1850" y="915" font-size="16" font-weight="700" fill="#111827">종료</text>
  </g>

  <!-- process boxes -->
  <g text-anchor="middle" dominant-baseline="central">
    <rect x="230" y="112" width="220" height="52" fill="#fff" stroke="#111827" stroke-width="1.5"/>
    <text x="340" y="138" font-size="15" font-weight="700" fill="#111827">질문 입력</text>

    <rect x="500" y="104" width="320" height="68" fill="#fff" stroke="#111827" stroke-width="1.5"/>
    <text x="660" y="124" font-size="16" font-weight="700" fill="#111827">AI 스트림 요청(SSE)</text>
    <text x="660" y="152" font-size="12" fill="#4b5563">POST /api/ai/stream</text>

    <rect x="90" y="410" width="220" height="90" fill="#fff" stroke="#111827" stroke-width="1.5" stroke-dasharray="6 5"/>
    <text x="200" y="441" font-size="15" font-weight="700" fill="#111827">정해진 안내 문구 반환</text>
    <text x="200" y="469" font-size="11.5" fill="#4b5563">Groq 미호출</text>

    <rect x="330" y="410" width="300" height="80" fill="#fff" stroke="#111827" stroke-width="1.5"/>
    <text x="480" y="436" font-size="16" font-weight="700" fill="#111827">질문 임베딩</text>
    <text x="480" y="464" font-size="11.5" fill="#4b5563">Ollama(nomic-embed-text)</text>

    <rect x="40" y="545" width="250" height="80" fill="#fff" stroke="#111827" stroke-width="1.5" stroke-dasharray="6 5"/>
    <text x="165" y="571" font-size="13" font-weight="700" fill="#111827">검색 실패 시</text>
    <text x="165" y="599" font-size="11" fill="#4b5563">전체 목록 조회 대체</text>

    <rect x="330" y="660" width="300" height="80" fill="#fff" stroke="#111827" stroke-width="1.5"/>
    <text x="480" y="686" font-size="15" font-weight="700" fill="#111827">RAG 결과를 tool-call</text>
    <text x="480" y="714" font-size="12" fill="#4b5563">형태로 주입</text>

    <rect x="770" y="490" width="300" height="90" fill="#fff" stroke="#111827" stroke-width="1.5"/>
    <text x="920" y="521" font-size="16" font-weight="700" fill="#111827">OpenWeather API 호출</text>
    <text x="920" y="549" font-size="11.5" fill="#4b5563">날씨 정보 텍스트 삽입</text>

    <rect x="550" y="870" width="280" height="90" fill="#fff" stroke="#111827" stroke-width="1.5"/>
    <text x="690" y="903" font-size="15" font-weight="700" fill="#111827">시스템 프롬프트 +</text>
    <text x="690" y="927" font-size="15" font-weight="700" fill="#111827">컨텍스트 구성</text>

    <rect x="900" y="875" width="260" height="80" fill="#fff" stroke="#111827" stroke-width="1.5"/>
    <text x="1030" y="901" font-size="16" font-weight="700" fill="#111827">Groq API 호출</text>
    <text x="1030" y="929" font-size="11.5" fill="#4b5563">llama-3.1-8b · stream</text>

    <rect x="1190" y="875" width="260" height="80" fill="#fff" stroke="#111827" stroke-width="1.5"/>
    <text x="1320" y="901" font-size="15" font-weight="700" fill="#111827">토큰 단위 SSE</text>
    <text x="1320" y="929" font-size="11.5" fill="#4b5563">응답 전송</text>
  </g>

  <!-- diamonds -->
  <g fill="#fff" stroke="#111827" stroke-width="1.5">
    <polygon points="660,212 810,290 660,368 510,290"/>
    <polygon points="920,360 1030,410 920,460 810,410"/>
  </g>
  <g text-anchor="middle" dominant-baseline="central" fill="#111827">
    <text x="660" y="276" font-size="15" font-weight="700">질문 유형 분류</text>
    <text x="660" y="304" font-size="11" fill="#4b5563">키워드 매칭</text>
    <text x="920" y="401" font-size="12.5" font-weight="700">날씨 키워드</text>
    <text x="920" y="419" font-size="9.5" fill="#4b5563">포함?</text>
  </g>

  <!-- cylinders -->
  <g fill="#fff" stroke="#111827" stroke-width="1.5">
    <path d="M330 544 a150 14 0 0 1 300 0 v62 a150 14 0 0 1 -300 0 z"/>
    <path d="M770 700 a150 14 0 0 1 300 0 v62 a150 14 0 0 1 -300 0 z"/>
    <path d="M1480 887 a130 14 0 0 1 260 0 v56 a130 14 0 0 1 -260 0 z"/>
  </g>
  <g text-anchor="middle" dominant-baseline="central">
    <text x="480" y="561" font-size="14" font-weight="700" fill="#111827">pgvector 유사도 검색</text>
    <text x="480" y="589" font-size="11" fill="#4b5563">cosine &lt;=&gt;, top-5</text>
    <text x="920" y="717" font-size="14" font-weight="700" fill="#111827">최근 대화 5턴 조회</text>
    <text x="920" y="745" font-size="11" fill="#4b5563">AI_LOG 테이블</text>
    <text x="1610" y="904" font-size="13" font-weight="700" fill="#111827">AI_LOG 기록</text>
    <text x="1610" y="926" font-size="10" fill="#4b5563">같은 요청 스레드</text>
  </g>
</svg>
